<svg xmlns="http://www.w3.org/2000/svg" viewBox="0 0 134.2 120"><defs><style>.a{fill:#ebeef0;}.a,.b,.c,.d,.e{fill-rule:evenodd;}.b{fill:#39485a;}.c{fill:#1f7bcf;}.d{fill:#85b245;}.e{fill:#fff;}</style></defs><title>logoColorida</title><path class="a" d="M128.1,17.3H60.9L44,106.6h84.1a6.1,6.1,0,0,0,6.1-6.1V23.4A6.1,6.1,0,0,0,128.1,17.3ZM13,17.3a6.1,6.1,0,0,0-6.1,6.1v77.1a6.1,6.1,0,0,0,6.1,6.1H37.3L54.2,17.3Z"/><path class="b" d="M53.5,36.6l23.4.5s6-32,6.9-37.1H5.8A5.8,5.8,0,0,0,0,5.8V90.1a5.8,5.8,0,0,0,5.8,5.8H42.3Z"/><path class="c" d="M117,0H84.6L76.9,35.7h-23L42.2,95.9H46l-4.1,22.9,2.4,1.2,30-24.1H117a5.8,5.8,0,0,0,5.8-5.8V5.8A5.8,5.8,0,0,0,117,0Z"/><polygon class="d" points="72.3 59.7 76.2 35.7 53.9 35.7 49.2 59.7 72.3 59.7"/><path class="e" d="M54,18.5h6.7L46,95.9H39.3Z"/><path class="e" d="M79.9,0h6.7L71.8,78.2H65.1Z"/><path class="e" d="M36.3,31.7H96.7l-1.3,6.8H35Z"/><path class="e" d="M30.6,56.8H91.1l-1.3,6.9H29.3Z"/></svg>